<svg width="12" height="12" viewBox="0 0 12 12" fill="none" xmlns="http://www.w3.org/2000/svg">
<path d="M0.5 0C0.367392 0 0.240215 0.0526785 0.146447 0.146447C0.0526785 0.240215 0 0.367392 0 0.5C0 0.632608 0.0526785 0.759785 0.146447 0.853553C0.240215 0.947321 0.367392 1 0.5 1H0.746C0.854571 1.00019 0.960131 1.03571 1.04673 1.1012C1.13332 1.16669 1.19625 1.25858 1.226 1.363L2.812 6.913C2.9017 7.22621 3.09094 7.50169 3.3511 7.6978C3.61126 7.89392 3.9282 7.99999 4.254 8H8.823C9.12285 8.00005 9.41583 7.91024 9.66413 7.74215C9.91243 7.57406 10.1047 7.33541 10.216 7.057L11.69 3.371C11.7506 3.21933 11.7731 3.05512 11.7556 2.89273C11.7381 2.73034 11.681 2.57472 11.5895 2.43946C11.4979 2.3042 11.3747 2.19343 11.2304 2.11682C11.0861 2.04021 10.9253 2.0001 10.762 2H2.448L2.187 1.088C2.09753 0.774773 1.90852 0.499186 1.64854 0.302896C1.38856 0.106607 1.07176 0.000284368 0.746 0H0.5Z" fill="#7C3AED" fill-opacity="0.6"/>
<path d="M4.5 12C4.69698 12 4.89204 11.9612 5.07403 11.8858C5.25601 11.8104 5.42137 11.6999 5.56066 11.5607C5.69995 11.4214 5.81044 11.256 5.88582 11.074C5.9612 10.892 6 10.697 6 10.5C6 10.303 5.9612 10.108 5.88582 9.92597C5.81044 9.74399 5.69995 9.57863 5.56066 9.43934C5.42137 9.30005 5.25601 9.18956 5.07403 9.11418C4.89204 9.0388 4.69698 9 4.5 9C4.10218 9 3.72064 9.15804 3.43934 9.43934C3.15804 9.72064 3 10.1022 3 10.5C3 10.8978 3.15804 11.2794 3.43934 11.5607C3.72064 11.842 4.10218 12 4.5 12V12Z" fill="#7C3AED" fill-opacity="0.6"/>
<path d="M8.5 12C8.69698 12 8.89204 11.9612 9.07403 11.8858C9.25601 11.8104 9.42137 11.6999 9.56066 11.5607C9.69995 11.4214 9.81044 11.256 9.88582 11.074C9.9612 10.892 10 10.697 10 10.5C10 10.303 9.9612 10.108 9.88582 9.92597C9.81044 9.74399 9.69995 9.57863 9.56066 9.43934C9.42137 9.30005 9.25601 9.18956 9.07403 9.11418C8.89204 9.0388 8.69698 9 8.5 9C8.10218 9 7.72064 9.15804 7.43934 9.43934C7.15804 9.72064 7 10.1022 7 10.5C7 10.8978 7.15804 11.2794 7.43934 11.5607C7.72064 11.842 8.10218 12 8.5 12V12Z" fill="#7C3AED" fill-opacity="0.6"/>
</svg>
