<svg width="132" height="37" viewBox="0 0 132 37" fill="none" xmlns="http://www.w3.org/2000/svg">
<rect x="2" y="2" width="128" height="32.6809" fill="#8B5CF6" fill-opacity="0.4" stroke="black" stroke-width="2.7234"/>
<path d="M14.3534 12.8833V20.1869C14.3482 21.0999 13.9459 21.5796 13.2135 21.5796C12.512 21.5796 12.0839 21.1309 12.0581 20.3107H9.51519C9.50488 22.5854 11.0935 23.5912 13.069 23.5912C15.3076 23.5912 16.8653 22.245 16.8704 20.1869V12.8833H14.3534ZM20.7583 23.4468L21.4546 21.2289H25.1013L25.7976 23.4468H28.5416L24.9775 12.8833H21.5784L18.0142 23.4468H20.7583ZM22.0632 19.2895L23.2341 15.5448H23.3166L24.4926 19.2895H22.0632ZM29.679 23.4468H32.2321V19.831H33.5423L35.4713 23.4468H38.2566L36.0645 19.4236C37.2251 18.8975 37.8956 17.8607 37.8956 16.401C37.8956 14.2295 36.4153 12.8833 34.0426 12.8833H29.679V23.4468ZM32.2321 17.8194V14.9413H33.4907C34.6358 14.9413 35.2496 15.421 35.2496 16.401C35.2496 17.381 34.6358 17.8194 33.4907 17.8194H32.2321ZM41.3824 12.8833H38.5249L42.089 23.4468H45.4881L49.0523 12.8833H46.1948L43.8324 20.6202H43.7447L41.3824 12.8833ZM52.7428 12.8833H50.1896V23.4468H52.7428V12.8833ZM60.0555 16.0503H62.5004C62.4797 14.0748 60.9066 12.7388 58.4514 12.7388C56.0374 12.7388 54.2992 14.0541 54.3147 16.0193C54.3095 17.6234 55.434 18.5261 57.2599 18.9439L58.3637 19.2018C59.5242 19.47 60.0452 19.7846 60.0555 20.3778C60.0452 21.0225 59.4417 21.4713 58.4153 21.4713C57.2857 21.4713 56.5429 20.9452 56.4862 19.929H54.0413C54.0723 22.3997 55.7899 23.5809 58.4462 23.5809C61.0768 23.5809 62.6345 22.3894 62.6448 20.3829C62.6345 18.6963 61.4946 17.6647 59.4107 17.2056L58.5029 16.9993C57.5436 16.793 56.9349 16.4732 56.9556 15.8439C56.9607 15.2662 57.4559 14.8485 58.4462 14.8485C59.4417 14.8485 59.9884 15.2972 60.0555 16.0503Z" fill="black"/>
<path d="M80.2257 16.0503H82.6705C82.6499 14.0748 81.0767 12.7388 78.6215 12.7388C76.2076 12.7388 74.4694 14.0541 74.4848 16.0193C74.4797 17.6234 75.6041 18.5261 77.43 18.9439L78.5338 19.2018C79.6944 19.47 80.2153 19.7846 80.2257 20.3778C80.2153 21.0225 79.6119 21.4713 78.5854 21.4713C77.4558 21.4713 76.7131 20.9452 76.6563 19.929H74.2115C74.2424 22.3997 75.96 23.5809 78.6164 23.5809C81.2469 23.5809 82.8046 22.3894 82.815 20.3829C82.8046 18.6963 81.6647 17.6647 79.5809 17.2056L78.6731 16.9993C77.7137 16.793 77.1051 16.4732 77.1257 15.8439C77.1309 15.2662 77.626 14.8485 78.6164 14.8485C79.6119 14.8485 80.1586 15.2972 80.2257 16.0503ZM83.7589 14.9568H86.9671V23.4468H89.4842V14.9568H92.6873V12.8833H83.7589V14.9568ZM103.422 18.165C103.422 14.6731 101.215 12.7388 98.3778 12.7388C95.5306 12.7388 93.3385 14.6731 93.3385 18.165C93.3385 21.6415 95.5306 23.5912 98.3778 23.5912C101.215 23.5912 103.422 21.657 103.422 18.165ZM100.812 18.165C100.812 20.2334 99.9046 21.3526 98.3778 21.3526C96.8562 21.3526 95.9433 20.2334 95.9433 18.165C95.9433 16.0967 96.8562 14.9774 98.3778 14.9774C99.9046 14.9774 100.812 16.0967 100.812 18.165ZM104.913 23.4468H107.466V19.831H108.776L110.705 23.4468H113.491L111.299 19.4236C112.459 18.8975 113.13 17.8607 113.13 16.401C113.13 14.2295 111.649 12.8833 109.277 12.8833H104.913V23.4468ZM107.466 17.8194V14.9413H108.725C109.87 14.9413 110.484 15.421 110.484 16.401C110.484 17.381 109.87 17.8194 108.725 17.8194H107.466ZM114.53 23.4468H121.896V21.3733H117.083V19.2018H121.519V17.1231H117.083V14.9568H121.896V12.8833H114.53V23.4468Z" fill="black"/>
<path d="M68.6719 21.5074C69.9253 21.5074 70.9414 20.4913 70.9414 19.2379C70.9414 17.9845 69.9253 16.9684 68.6719 16.9684C67.4185 16.9684 66.4024 17.9845 66.4024 19.2379C66.4024 20.4913 67.4185 21.5074 68.6719 21.5074Z" fill="black"/>
</svg>
